HIERARCHY
ROOT Hips
{
 OFFSET 0.000000 0.000000 0.000000
 CHANNELS 6 Xposition Yposition Zposition Yrotation Xrotation Zrotation
 JOINT Chest
 {
  OFFSET 0.000000 12.953391 -0.028419
  CHANNELS 3 Yrotation Xrotation Zrotation
  JOINT Chest2
  {
   OFFSET 0.000000 10.280254 0.051622
   CHANNELS 3 Yrotation Xrotation Zrotation
   JOINT Chest3
   {
    OFFSET 0.000000 9.287180 0.000000
    CHANNELS 3 Yrotation Xrotation Zrotation
    JOINT Chest4
    {
     OFFSET 0.000000 9.287180 0.000000
     CHANNELS 3 Yrotation Xrotation Zrotation
     JOINT Neck
     {
      OFFSET 0.000000 13.296264 0.000000
      CHANNELS 3 Yrotation Xrotation Zrotation
      JOINT Head
      {
       OFFSET 0.000000 8.959264 0.099003
       CHANNELS 3 Yrotation Xrotation Zrotation
       End Site
       {
        OFFSET 0.000000 17.121337 0.039303
       }
      }
     }
     JOINT RightCollar
     {
      OFFSET -3.193511 7.451388 0.000000
      CHANNELS 3 Yrotation Xrotation Zrotation
      JOINT RightShoulder
      {
       OFFSET -15.792092 0.000000 0.000000
       CHANNELS 3 Yrotation Xrotation Zrotation
       JOINT RightElbow
       {
        OFFSET -31.151839 0.000000 0.000000
        CHANNELS 3 Yrotation Xrotation Zrotation
        JOINT RightWrist
        {
         OFFSET -25.536298 0.000000 0.002321
         CHANNELS 3 Yrotation Xrotation Zrotation
         End Site
         {
          OFFSET -19.133213 0.000000 0.000000
         }
        }
       }
      }
     }
     JOINT LeftCollar
     {
      OFFSET 3.193511 7.451388 0.000000
      CHANNELS 3 Yrotation Xrotation Zrotation
      JOINT LeftShoulder
      {
       OFFSET 15.792092 0.000000 0.000000
       CHANNELS 3 Yrotation Xrotation Zrotation
       JOINT LeftElbow
       {
        OFFSET 31.151839 0.000000 0.000000
        CHANNELS 3 Yrotation Xrotation Zrotation
        JOINT LeftWrist
        {
         OFFSET 25.536298 0.000000 0.002321
         CHANNELS 3 Yrotation Xrotation Zrotation
         End Site
         {
          OFFSET 19.133213 0.000000 0.000000
         }
        }
       }
      }
     }
    }
   }
  }
 }
 JOINT RightHip
 {
  OFFSET -10.745749 0.139252 0.014209
  CHANNELS 3 Yrotation Xrotation Zrotation
  JOINT RightKnee
  {
   OFFSET 0.000000 -43.743899 -0.006071
   CHANNELS 3 Yrotation Xrotation Zrotation
   JOINT RightAnkle
   {
    OFFSET 0.000000 -43.214199 0.089931
    CHANNELS 3 Yrotation Xrotation Zrotation
    JOINT RightToe
    {
     OFFSET 0.000000 -9.699830 19.151588
     CHANNELS 3 Yrotation Xrotation Zrotation
     End Site
     {
      OFFSET 0.000000 -1.292898 4.893873
     }
    }
   }
  }
 }
 JOINT LeftHip
 {
  OFFSET 10.745749 0.139252 0.014209
  CHANNELS 3 Yrotation Xrotation Zrotation
  JOINT LeftKnee
  {
   OFFSET 0.000000 -43.743899 -0.006071
   CHANNELS 3 Yrotation Xrotation Zrotation
   JOINT LeftAnkle
   {
    OFFSET 0.000000 -43.214199 0.089931
    CHANNELS 3 Yrotation Xrotation Zrotation
    JOINT LeftToe
    {
     OFFSET 0.000000 -9.699830 19.151588
     CHANNELS 3 Yrotation Xrotation Zrotation
     End Site
     {
      OFFSET 0.000000 -1.292898 4.893873
     }
    }
   }
  }
 }
}
MOTION
Frames: 9
Frame Time: 0.016667
-35.392187 99.242970 62.882907 73.193326 -13.151643 7.134858 -3.977802 13.295183 4.671565 -1.890305 5.868964 2.176506 -1.890305 5.868964 2.176506 -1.437474 4.395115 1.649177 -13.722051 29.007084 4.037764 -25.117658 19.398243 9.543468 7.540891 0.363881 5.832544 7.133526 -24.157321 61.928859 4.391119 35.316839 -9.065064 15.281673 26.380854 -42.450451 -3.727987 2.482096 -12.931135 -11.843700 -9.669732 -72.900094 -14.379086 4.154259 2.606929 5.034654 9.935422 6.273549 -12.475034 15.449878 -3.266131 -1.221293 1.693042 -0.076183 -12.359785 -6.359551 -3.740809 -0.000000 0.000000 0.000000 21.269122 -0.844103 9.794805 0.518008 16.548461 -1.244355 2.249897 6.422342 -5.317188 0.000000 0.000000 0.000000
-35.453933 99.229115 62.642953 73.314164 -12.983791 7.140908 -3.969454 13.242350 4.694097 -1.886815 5.845371 2.185863 -1.886811 5.845371 2.185862 -1.434868 4.377404 1.656092 -13.693834 28.987715 4.077045 -25.075775 19.366735 9.611747 7.489065 0.336532 5.795391 7.100897 -24.136363 61.758450 4.284407 35.195013 -9.027193 15.472233 26.512022 -42.513946 -3.756001 2.457259 -12.884861 -11.882154 -9.684427 -72.896905 -14.472168 4.103032 2.581778 5.018059 9.927918 6.222752 -12.462153 15.265042 -3.393891 -1.431821 1.550645 0.071640 -12.235517 -6.262987 -3.859285 0.000000 0.000000 0.000000 21.432333 -0.997459 9.630495 0.613313 16.766218 -1.076607 1.161773 5.675874 -4.834364 0.000000 0.000000 0.000000
-35.515679 99.215260 62.402998 73.434939 -12.815951 7.147316 -3.961063 13.189479 4.716516 -1.883306 5.821764 2.195173 -1.883302 5.821763 2.195172 -1.432253 4.359681 1.662972 -13.665618 28.968269 4.116255 -25.033941 19.335051 9.679913 7.437211 0.309198 5.758293 7.067985 -24.115366 61.588193 4.177617 35.073678 -8.988753 15.662639 26.643092 -42.577588 -3.783966 2.432367 -12.838573 -11.920601 -9.699147 -72.893692 -14.565179 4.051708 2.556653 5.001531 9.920361 6.171955 -12.449399 15.080435 -3.522056 -1.643140 1.409137 0.219679 -12.111208 -6.166357 -3.977420 0.000000 -0.000000 0.000000 21.595813 -1.149798 9.465047 0.710043 16.982939 -0.907325 0.071128 4.935684 -4.337002 0.000000 0.000000 0.000000
-35.578409 99.203606 62.162149 73.562508 -12.662534 7.136801 -3.946163 13.152477 4.739464 -1.877074 5.805274 2.204639 -1.877074 5.805274 2.204639 -1.427625 4.347308 1.669964 -13.637298 28.943071 4.166719 -24.994313 19.295323 9.768815 7.387221 0.275131 5.731316 7.014802 -24.105945 61.422948 4.110987 34.964304 -8.954691 15.815070 26.759026 -42.593583 -3.821122 2.402942 -12.786536 -11.978512 -9.719057 -72.868485 -14.655977 4.009745 2.528796 4.984869 9.926419 6.118214 -12.411994 14.898533 -3.621530 -1.842771 1.290444 0.339746 -12.032425 -6.070394 -4.081636 0.000000 0.000000 -0.000000 21.725956 -1.279982 9.316118 0.807207 17.271619 -0.689210 -0.749726 4.161633 -3.984081 0.000000 -0.000000 0.000000
-35.643229 99.195386 61.922131 73.697332 -12.529741 7.100532 -3.919469 13.142635 4.765540 -1.865953 5.800952 2.215327 -1.865956 5.800953 2.215329 -1.419384 4.344075 1.677858 -13.605952 28.905406 4.239532 -24.954188 19.237332 9.898696 7.340336 0.231049 5.717813 6.913542 -24.115211 61.272002 4.129178 34.894134 -8.926669 15.897623 26.850041 -42.536339 -3.875157 2.364561 -12.724729 -12.076216 -9.748206 -72.807227 -14.740797 3.980449 2.492942 4.967179 9.958122 6.058121 -12.315416 14.716560 -3.667234 -2.033263 1.212504 0.410208 -12.032497 -5.978567 -4.168319 0.000000 -0.000000 0.000000 21.811462 -1.380909 9.184171 0.881520 17.668129 -0.387418 -1.178920 3.300245 -3.911850 0.000000 -0.000000 0.000000
-35.709034 99.189367 61.681218 73.838833 -12.411228 7.047304 -3.886252 13.148614 4.792214 -1.852102 5.803726 2.226193 -1.852104 5.803726 2.226194 -1.409116 4.346172 1.685875 -13.574518 28.861865 4.323516 -24.916434 19.171182 10.049222 7.295300 0.180259 5.714433 6.791821 -24.136096 61.126384 4.187419 34.835303 -8.903579 15.942622 26.926201 -42.431390 -3.938341 2.321700 -12.657056 -12.193353 -9.782433 -72.723798 -14.823473 3.960539 2.454403 4.949204 10.003444 5.995043 -12.194477 14.537021 -3.684905 -2.211499 1.156850 0.452218 -12.077970 -5.887429 -4.241553 -0.000000 -0.000000 0.000000 21.863303 -1.460335 9.069516 0.959614 18.136298 -0.035325 -1.331915 2.397976 -3.997884 0.000000 0.000000 0.000000
-35.773482 99.184046 61.433341 73.992266 -12.302547 6.986293 -3.855941 13.152404 4.812409 -1.839327 5.805554 2.234266 -1.839327 5.805554 2.234266 -1.399623 4.347565 1.691806 -13.551687 28.826797 4.396668 -24.891494 19.119632 10.180506 7.250253 0.125928 5.721174 6.712899 -24.158758 60.963287 4.191565 34.716872 -8.886083 16.008620 27.002074 -42.307695 -3.996821 2.283222 -12.589734 -12.288369 -9.814684 -72.638279 -14.913248 3.949580 2.426211 4.933261 10.039959 5.936197 -12.128224 14.370569 -3.721199 -2.356549 1.090621 0.501746 -12.114237 -5.787439 -4.299280 0.000000 -0.000000 0.000000 21.881193 -1.519770 8.989909 1.115339 18.640377 0.312949 -1.293226 1.560668 -4.018145 0.000000 -0.000000 0.000000
-35.833951 99.179209 61.176732 74.157007 -12.204152 6.920968 -3.833185 13.148110 4.822923 -1.829544 5.803793 2.238231 -1.829543 5.803792 2.238231 -1.392323 4.346267 1.694679 -13.541229 28.808332 4.449546 -24.883672 19.096075 10.275051 7.205376 0.070475 5.742186 6.729578 -24.176726 60.756474 4.093710 34.474772 -8.868392 16.135609 27.081899 -42.182166 -4.047802 2.254713 -12.525162 -12.344484 -9.841886 -72.555965 -15.016014 3.948627 2.410810 4.917003 10.061653 5.876150 -12.162698 14.224643 -3.799946 -2.449158 0.999503 0.575488 -12.113806 -5.675220 -4.339196 0.000000 -0.000000 0.000000 21.843382 -1.554972 8.950139 1.407335 19.180884 0.645687 -1.025079 0.819082 -3.894703 0.000000 -0.000000 0.000000
-35.893064 99.175070 60.913158 74.333683 -12.115497 6.847839 -3.813401 13.141686 4.826949 -1.820869 5.801108 2.239405 -1.820869 5.801107 2.239405 -1.385826 4.344280 1.695470 -13.539338 28.798497 4.491744 -24.888490 19.087450 10.350545 7.160454 0.011479 5.773267 6.789273 -24.195899 60.531678 3.941599 34.173831 -8.854863 16.283570 27.161318 -42.037782 -4.094138 2.230598 -12.461024 -12.378532 -9.867271 -72.471771 -15.125887 3.956634 2.405541 4.902903 10.074509 5.820351 -12.251530 14.092023 -3.896257 -2.508870 0.897635 0.656974 -12.104208 -5.554199 -4.363445 0.000000 0.000000 0.000000 21.771671 -1.570560 8.945895 1.777515 19.756342 0.976832 -0.566823 0.141548 -3.721905 0.000000 -0.000000 0.000000
